<?xml version="1.0" standalone="no"?><!DOCTYPE svg PUBLIC "-//W3C//DTD SVG 1.1//EN" "http://www.w3.org/Graphics/SVG/1.1/DTD/svg11.dtd"><svg t="1564026047361" class="icon" viewBox="0 0 1024 1024" version="1.1" xmlns="http://www.w3.org/2000/svg" p-id="991" xmlns:xlink="http://www.w3.org/1999/xlink" width="200" height="200"><defs><style type="text/css"></style></defs><path d="M450.133333 725.333333L512 888.32l61.866667-159.146667-33.28-113.92c4.266667 0 4.266667-6.4 4.266666-10.24v-26.88a14.08 14.08 0 0 0-14.506666-14.506666h-39.253334a14.08 14.08 0 0 0-14.506666 14.506666v26.88a17.92 17.92 0 0 0 6.4 12.373334z m0 0" fill="#1AB394" p-id="992"></path><path d="M673.28 561.493333L512 977.066667l-163.413333-415.573334C185.173333 625.92 104.533333 785.066667 71.68 981.333333h880.64c-33.28-196.266667-113.92-355.413333-279.04-419.84zM512 42.666667a239.786667 239.786667 0 1 0 239.786667 239.786666A240.213333 240.213333 0 0 0 512 42.666667z m0 438.186666a199.253333 199.253333 0 0 1-196.266667-188.16 276.48 276.48 0 0 0 88.746667-150.613333A315.733333 315.733333 0 0 0 640 243.2a380.586667 380.586667 0 0 0 68.266667-6.4 161.28 161.28 0 0 1 6.4 45.653333A201.813333 201.813333 0 0 1 512 480.853333z m0 0" fill="#1AB394" p-id="993"></path></svg>