<?xml version="1.0" standalone="no"?><!DOCTYPE svg PUBLIC "-//W3C//DTD SVG 1.1//EN" "http://www.w3.org/Graphics/SVG/1.1/DTD/svg11.dtd"><svg t="1564025688544" class="icon" viewBox="0 0 1024 1024" version="1.1" xmlns="http://www.w3.org/2000/svg" p-id="991" xmlns:xlink="http://www.w3.org/1999/xlink" width="200" height="200"><defs><style type="text/css"></style></defs><path d="M218.026667 231.253333L405.333333 758.613333a10.666667 10.666667 0 0 0 17.493334 4.266667l122.88-114.773333a11.093333 11.093333 0 0 1 15.36 0l128 128a11.093333 11.093333 0 0 0 15.36 0l71.68-70.826667a10.666667 10.666667 0 0 0 0-15.36l-128-128a10.666667 10.666667 0 0 1 0-15.36L768 443.733333a10.666667 10.666667 0 0 0-3.413333-17.92L232.106667 217.6a10.666667 10.666667 0 0 0-14.08 13.653333z m714.24 389.12a48.64 48.64 0 0 0-49.066667 48.213334v174.933333c0 22.186667-25.173333 42.666667-54.613333 42.666667H194.986667c-29.44 0-54.613333-18.773333-54.613334-42.666667V180.48c0-22.186667 25.173333-42.666667 54.613334-42.666667h516.266666a48.213333 48.213333 0 1 0 0-96.853333H194.986667A145.92 145.92 0 0 0 42.666667 180.48v663.04A145.92 145.92 0 0 0 194.986667 981.333333h633.6A145.92 145.92 0 0 0 981.333333 843.52v-174.933333a48.64 48.64 0 0 0-49.066666-48.213334z m0 0" fill="#1AB394" p-id="992"></path></svg>